<svg width="105" height="60" viewBox="0 0 105 60" fill="none" xmlns="http://www.w3.org/2000/svg">
<g clip-path="url(#clip0_2264_22669)">
<path d="M62.0697 42.7497C57.4544 46.1516 50.7648 47.9666 45.0052 47.9666C36.9292 47.9666 29.6588 44.9796 24.1585 40.0116C23.7263 39.621 24.1135 39.0886 24.6321 39.3928C30.568 42.8465 37.9076 44.9243 45.4892 44.9243C50.6023 44.9243 56.2271 43.8664 61.399 41.6711C62.1804 41.3392 62.8338 42.1827 62.0697 42.7497Z" fill="#8C97AA"/>
<path d="M63.9885 40.5544C63.4008 39.8008 60.0888 40.1984 58.6022 40.3747C58.1494 40.43 58.0802 40.0359 58.4882 39.7524C61.126 37.8959 65.4544 38.4317 65.9591 39.054C66.4638 39.6798 65.8277 44.0185 63.3489 46.0894C62.9687 46.4074 62.6056 46.238 62.7751 45.8163C63.3317 44.4265 64.5797 41.3116 63.9885 40.5544Z" fill="#8C97AA"/>
<path d="M58.7059 26.6462V24.8416C58.7059 24.5685 58.9133 24.3853 59.1622 24.3853H67.2416C67.5009 24.3853 67.7084 24.5719 67.7084 24.8416V26.387C67.7049 26.6462 67.4871 26.985 67.0999 27.5209L62.9133 33.4983C64.469 33.4603 66.1111 33.6919 67.5217 34.4871C67.8397 34.6669 67.9262 34.9296 67.9504 35.1889V37.1145C67.9504 37.3773 67.66 37.685 67.3557 37.5259C64.87 36.2226 61.5684 36.0808 58.82 37.5398C58.54 37.6919 58.2461 37.3877 58.2461 37.1249V35.2961C58.2461 35.0022 58.2495 34.5009 58.5434 34.0549L63.3938 27.0991H59.1726C58.9133 27.0991 58.7059 26.9159 58.7059 26.6462Z" fill="#8C97AA"/>
<path d="M29.2335 37.9059H26.7755C26.5404 37.8886 26.3537 37.7123 26.3364 37.4876V24.8724C26.3364 24.62 26.5473 24.4195 26.8101 24.4195H29.1022C29.3407 24.4299 29.5308 24.6131 29.5481 24.8413V26.4904H29.5931C30.1912 24.8966 31.3147 24.1533 32.829 24.1533C34.3674 24.1533 35.3285 24.8966 36.0199 26.4904C36.6146 24.8966 37.9663 24.1533 39.4149 24.1533C40.4451 24.1533 41.5722 24.5786 42.2601 25.5327C43.038 26.5941 42.879 28.136 42.879 29.4877L42.8755 37.4496C42.8755 37.702 42.6646 37.9059 42.4019 37.9059H39.9473C39.7018 37.8886 39.5048 37.6916 39.5048 37.4496V30.7634C39.5048 30.231 39.5532 28.9035 39.4356 28.3987C39.2524 27.5517 38.7027 27.3132 37.9905 27.3132C37.3959 27.3132 36.7736 27.7107 36.5212 28.3469C36.2689 28.983 36.2931 30.0478 36.2931 30.7634V37.4496C36.2931 37.702 36.0822 37.9059 35.8194 37.9059H33.3648C33.1159 37.8886 32.9223 37.6916 32.9223 37.4496L32.9189 30.7634C32.9189 29.3564 33.1505 27.2855 31.4046 27.2855C29.638 27.2855 29.7072 29.3045 29.7072 30.7634V37.4496C29.7072 37.702 29.4963 37.9059 29.2335 37.9059Z" fill="#8C97AA"/>
<path d="M74.6643 24.1533C78.3116 24.1533 80.2856 27.2855 80.2856 31.2682C80.2856 35.116 78.1042 38.1687 74.6643 38.1687C71.0827 38.1687 69.1328 35.0365 69.1328 31.1333C69.1328 27.206 71.1069 24.1533 74.6643 24.1533ZM74.685 26.7289C72.8735 26.7289 72.7594 29.1973 72.7594 30.7358C72.7594 32.2777 72.7352 35.5689 74.6643 35.5689C76.5692 35.5689 76.6591 32.9138 76.6591 31.2958C76.6591 30.231 76.6141 28.9588 76.2926 27.9493C76.016 27.0712 75.4663 26.7289 74.685 26.7289Z" fill="#8C97AA"/>
<path d="M85.0147 37.9059H82.5671C82.3216 37.8886 82.1245 37.6916 82.1245 37.4496L82.1211 24.8309C82.1418 24.5993 82.3458 24.4195 82.5947 24.4195H84.873C85.0873 24.4299 85.2637 24.5751 85.3121 24.7722V26.7013H85.357C86.045 24.9761 87.0095 24.1533 88.707 24.1533C89.8098 24.1533 90.885 24.5509 91.5764 25.6399C92.2195 26.6494 92.2195 28.3469 92.2195 29.5672V37.5084C92.1918 37.7296 91.9878 37.9059 91.7458 37.9059H89.2809C89.0562 37.8886 88.8695 37.7227 88.8453 37.5084V30.6563C88.8453 29.2768 89.0043 27.2579 87.3068 27.2579C86.7088 27.2579 86.1591 27.6589 85.8859 28.2673C85.5402 29.0383 85.4953 29.8058 85.4953 30.6563V37.4496C85.4918 37.702 85.2775 37.9059 85.0147 37.9059Z" fill="#8C97AA"/>
<path d="M52.2652 31.88V31.3476C50.4882 31.3476 48.611 31.7279 48.611 33.8229C48.611 34.8843 49.1607 35.6034 50.1045 35.6034C50.7959 35.6034 51.4148 35.1781 51.8054 34.4867C52.2894 33.6362 52.2652 32.8376 52.2652 31.88ZM54.744 37.8713C54.5815 38.0165 54.3464 38.0268 54.1632 37.93C53.3473 37.2524 53.2021 36.9378 52.7527 36.2913C51.4044 37.6673 50.4502 38.0787 48.7009 38.0787C46.6335 38.0787 45.0225 36.803 45.0225 34.2482C45.0225 32.2534 46.1046 30.8947 47.643 30.2309C48.9775 29.6432 50.8409 29.5395 52.2652 29.377V29.0589C52.2652 28.4747 52.3102 27.7833 51.9679 27.2785C51.6671 26.8256 51.0932 26.6389 50.5885 26.6389C49.6516 26.6389 48.815 27.1195 48.611 28.1151C48.5695 28.3364 48.407 28.5542 48.1858 28.5646L45.8003 28.3087C45.5998 28.2638 45.3785 28.1013 45.4339 27.7936C45.9836 24.9034 48.5937 24.0322 50.9308 24.0322C52.1269 24.0322 53.6896 24.3503 54.6334 25.2561C55.8296 26.3727 55.7155 27.8628 55.7155 29.4842V33.3147C55.7155 34.466 56.1926 34.9707 56.642 35.593C56.801 35.8142 56.8356 36.0805 56.6351 36.2464C56.1338 36.6647 55.2418 37.4426 54.7509 37.8782L54.744 37.8713Z" fill="#8C97AA"/>
<path d="M20.0411 31.88V31.3476C18.2641 31.3476 16.3869 31.7279 16.3869 33.8229C16.3869 34.8843 16.9366 35.6034 17.8804 35.6034C18.5718 35.6034 19.1906 35.1781 19.5813 34.4867C20.0653 33.6362 20.0411 32.8376 20.0411 31.88ZM22.5199 37.8713C22.3574 38.0165 22.1223 38.0268 21.9391 37.93C21.1232 37.2524 20.978 36.9378 20.5286 36.2913C19.1803 37.6673 18.2261 38.0787 16.4768 38.0787C14.4094 38.0787 12.7983 36.803 12.7983 34.2482C12.7983 32.2534 13.8804 30.8947 15.4189 30.2309C16.7533 29.6432 18.6167 29.5395 20.0411 29.377V29.0589C20.0411 28.4747 20.086 27.7833 19.7438 27.2785C19.443 26.8256 18.8691 26.6389 18.3644 26.6389C17.4275 26.6389 16.5908 27.1195 16.3869 28.1151C16.3454 28.3364 16.1829 28.5542 15.9616 28.5646L13.5762 28.3087C13.3757 28.2638 13.1544 28.1013 13.2097 27.7936C13.7594 24.9034 16.3696 24.0322 18.7066 24.0322C19.9028 24.0322 21.4655 24.3503 22.4093 25.2561C23.6054 26.3727 23.4914 27.8628 23.4914 29.4842V33.3147C23.4914 34.466 23.9684 34.9707 24.4179 35.593C24.5769 35.8142 24.6115 36.0805 24.411 36.2464C23.9097 36.6647 23.0177 37.4426 22.5268 37.8782L22.5199 37.8713Z" fill="#8C97AA"/>
</g>
<defs>
<clipPath id="clip0_2264_22669">
<rect width="79.5165" height="24" fill="white" transform="translate(12.75 24)"/>
</clipPath>
</defs>
</svg>
