<svg width="105" height="60" viewBox="0 0 105 60" fill="none" xmlns="http://www.w3.org/2000/svg">
<g clip-path="url(#clip0_2264_20498)">
<path d="M7.5 33.3032H19.573L18.9136 34.1996H7.5V33.3032Z" fill="#8C97AA"/>
<path d="M7.5 31.6406H20.7995L20.1389 32.5357H7.5V31.6406Z" fill="#8C97AA"/>
<path d="M7.5 34.9678H18.3472L17.6907 35.858H7.5V34.9678Z" fill="#8C97AA"/>
<path d="M96.7749 34.1995H84.749L85.4081 33.3037H96.7749V34.1995Z" fill="#8C97AA"/>
<path d="M96.7752 35.858L83.5264 35.8592L84.1827 34.9678H96.7752V35.858Z" fill="#8C97AA"/>
<path d="M86.6343 31.6406H96.7755V32.5363L85.9746 32.537L86.6343 31.6406Z" fill="#8C97AA"/>
<path d="M19.1938 35.8581L24.9229 28.084H32.0322C32.818 28.084 32.8078 28.382 32.4237 28.9017C32.0337 29.4294 31.37 30.3368 30.9728 30.8726C30.7712 31.1447 30.4066 31.6405 31.6146 31.6405H41.1388C40.3467 32.7242 37.7775 35.8581 33.164 35.8581H19.1938Z" fill="#8C97AA"/>
<path d="M52.0039 31.6396L48.8974 35.8578H40.7021C40.7021 35.8578 43.8073 31.6403 43.8101 31.6403L52.0039 31.6396Z" fill="#8C97AA"/>
<path d="M63.855 31.6406L60.7469 35.8582H52.5547C52.5547 35.8582 55.6601 31.6406 55.6629 31.6406H63.855Z" fill="#8C97AA"/>
<path d="M66.5196 31.6406C66.5199 31.6406 65.9211 32.4583 65.6301 32.8509C64.6011 34.24 65.5105 35.8582 68.869 35.8582H82.0259L85.1335 31.6406H66.5196Z" fill="#8C97AA"/>
<path d="M23.1999 23.25L20.3477 27.1205H35.8928C36.6785 27.1205 36.6682 27.4184 36.2842 27.9381C35.8942 28.4653 35.2414 29.3831 34.8442 29.9188C34.6426 30.1904 34.278 30.6861 35.486 30.6861H41.8429C41.8429 30.6861 42.8675 29.2934 43.7264 28.1292C44.895 26.5454 43.8278 23.25 39.6505 23.25H23.1999Z" fill="#8C97AA"/>
<path d="M64.5582 30.6861H44.5137L49.9948 23.25H58.1873L55.0463 27.5136H58.7028L61.8464 23.25H70.0377L64.5582 30.6861Z" fill="#8C97AA"/>
<path d="M81.384 23.25L75.9039 30.6861H67.2227C67.2227 30.6861 72.7046 23.25 72.7074 23.25H81.384Z" fill="#8C97AA"/>
<path d="M36.7617 45.1315V39.2251H40.7044V40.3795H38.1058V41.5876H40.4355V42.6973H38.1058V43.9771H40.7939V45.1315L36.7617 45.1315Z" fill="#8C97AA"/>
<path d="M41.2866 45.1314L42.7202 42.8584L41.3854 40.5674H42.81L43.5537 41.9723H43.697L44.4407 40.5674H45.8026L44.4675 42.8584L45.9013 45.1314H44.4764L43.6343 43.7085H43.4909L42.6485 45.1314H41.2866Z" fill="#8C97AA"/>
<path d="M46.5283 46.8323V40.568H47.7561V41.3555C47.8816 41.0812 48.0622 40.8663 48.2981 40.7112C48.534 40.5561 48.8043 40.4785 49.1091 40.4785C49.6227 40.4785 50.0244 40.674 50.3141 41.0646C50.6039 41.4555 50.7487 41.991 50.7487 42.6711V43.0291C50.7487 43.7092 50.6039 44.2448 50.3141 44.6354C50.0244 45.0263 49.6228 45.2217 49.1091 45.2217C48.5177 45.2217 48.0905 44.9472 47.8278 44.3982V46.8324L46.5283 46.8323ZM48.616 41.5703C48.2875 41.5703 48.0249 41.7105 47.8278 41.9909V43.7181C48.0249 43.9925 48.2876 44.1297 48.616 44.1297C48.8849 44.1297 49.0909 44.0328 49.2345 43.8389C49.3779 43.6451 49.4495 43.3662 49.4495 43.0021V42.6979C49.4495 42.334 49.3779 42.0551 49.2345 41.8611C49.0909 41.6672 48.8849 41.5703 48.616 41.5703Z" fill="#8C97AA"/>
<path d="M51.7339 45.1316V40.5676H52.9617V41.704C53.0269 41.5012 53.1155 41.3088 53.2256 41.1268C53.3363 40.9449 53.4796 40.7956 53.6562 40.6793C53.8321 40.5629 54.0517 40.5049 54.3143 40.5049C54.3685 40.5049 54.4177 40.5064 54.4626 40.5093C54.5069 40.5124 54.5623 40.5198 54.6281 40.5316V41.7309C54.5801 41.7251 54.5278 41.7206 54.4712 41.7175C54.4146 41.7146 54.3593 41.713 54.3057 41.713C53.9767 41.713 53.7078 41.7755 53.4993 41.9009C53.2901 42.0262 53.1345 42.1605 53.033 42.3036V45.1315L51.7339 45.1316Z" fill="#8C97AA"/>
<path d="M57.3431 45.2389C56.656 45.2389 56.1079 45.045 55.6989 44.6572C55.2895 44.2694 55.085 43.7264 55.085 43.0285V42.6705C55.085 41.9845 55.2747 41.4445 55.654 41.0507C56.0332 40.6569 56.5394 40.46 57.1727 40.46C57.8118 40.46 58.3063 40.6569 58.6557 41.0507C59.0051 41.4445 59.1798 41.9904 59.1798 42.6883V43.2432H56.3755C56.4471 43.8817 56.8024 44.2007 57.4415 44.2007C57.6507 44.2007 57.8432 44.1709 58.0194 44.1113C58.1957 44.0517 58.3703 43.9651 58.5438 43.8517L59.0722 44.6661C58.8453 44.8392 58.5869 44.9779 58.2972 45.0823C58.0074 45.1866 57.6894 45.2389 57.3431 45.2389ZM57.1459 41.4981C56.8891 41.4981 56.6978 41.5803 56.5723 41.7442C56.4472 41.9084 56.3755 42.1395 56.3574 42.4378H57.9345C57.9164 42.1395 57.8447 41.9084 57.7192 41.7442C57.594 41.5803 57.4027 41.4981 57.1459 41.4981Z" fill="#8C97AA"/>
<path d="M61.4911 45.2389C61.1208 45.2389 60.7923 45.1911 60.5057 45.0957C60.219 45.0003 59.9502 44.8483 59.6992 44.6392L60.219 43.8071C60.601 44.0933 61.0193 44.2365 61.4732 44.2365C61.945 44.2365 62.1813 44.0964 62.1813 43.816C62.1813 43.6191 62.0167 43.4848 61.6882 43.4133L61.1955 43.3059C60.7834 43.2164 60.4682 43.0508 60.2504 42.8092C60.032 42.5676 59.9231 42.2648 59.9231 41.9008C59.9231 41.4476 60.0858 41.094 60.4116 40.8404C60.7369 40.5868 61.1866 40.46 61.7599 40.46C62.435 40.46 63.0175 40.6361 63.5071 40.988L63.0144 41.8203C62.6859 41.5818 62.3126 41.4623 61.8943 41.4623C61.4643 41.4623 61.2493 41.5936 61.2493 41.8561C61.2493 42.0709 61.4136 42.214 61.742 42.2857L62.244 42.3931C63.0919 42.578 63.516 43.0316 63.516 43.7533C63.516 44.2247 63.3383 44.5901 62.983 44.8497C62.6275 45.1091 62.1302 45.2389 61.4911 45.2389Z" fill="#8C97AA"/>
<path d="M65.8456 45.2389C65.4753 45.2389 65.1468 45.1911 64.8601 45.0957C64.5735 45.0003 64.3047 44.8483 64.0537 44.6392L64.5735 43.8071C64.9555 44.0933 65.3738 44.2365 65.8277 44.2365C66.2995 44.2365 66.5357 44.0964 66.5357 43.816C66.5357 43.6191 66.3712 43.4848 66.0427 43.4133L65.55 43.3059C65.1379 43.2164 64.8227 43.0508 64.6049 42.8092C64.3865 42.5676 64.2776 42.2648 64.2776 41.9008C64.2776 41.4476 64.4403 41.094 64.766 40.8404C65.0914 40.5868 65.5411 40.46 66.1144 40.46C66.7894 40.46 67.372 40.6361 67.8616 40.988L67.3689 41.8203C67.0404 41.5818 66.6671 41.4623 66.2488 41.4623C65.8188 41.4623 65.6038 41.5936 65.6038 41.8561C65.6038 42.0709 65.7681 42.214 66.0965 42.2857L66.5985 42.3931C67.4464 42.578 67.8705 43.0316 67.8705 43.7533C67.8705 44.2247 67.6928 44.5901 67.3375 44.8497C66.982 45.1091 66.4847 45.2389 65.8456 45.2389Z" fill="#8C97AA"/>
</g>
<defs>
<clipPath id="clip0_2264_20498">
<rect width="89.2751" height="23.5821" fill="white" transform="translate(7.5 23.25)"/>
</clipPath>
</defs>
</svg>
