<svg width="105" height="60" viewBox="0 0 105 60" fill="none" xmlns="http://www.w3.org/2000/svg">
<g clip-path="url(#clip0_2264_22751)">
<path fill-rule="evenodd" clip-rule="evenodd" d="M4.11914 36.4633H7.65772V32.787H14.3531V31.0491H7.65772V28.8433H14.9428V26.6709H7.41482C6.0734 26.6709 4.17118 28.3613 4.17118 29.7958L4.11914 36.4633Z" fill="#8C97AA"/>
<path fill-rule="evenodd" clip-rule="evenodd" d="M19.4891 26.7783C18.3243 26.7783 16.3687 28.576 16.3687 29.5857V33.6272C16.3687 34.7057 18.3287 36.4638 19.2767 36.4638H26.2765C27.0532 36.4638 29.1117 34.8745 29.1117 33.6272V29.767C29.1117 28.5582 27.3297 26.7783 26.1126 26.7783H19.4891ZM19.8716 28.919H25.7301C25.7301 28.919 25.7758 34.1999 25.7301 34.3641C25.6844 34.5284 19.8716 34.3641 19.8716 34.3641V28.919Z" fill="#8C97AA"/>
<path fill-rule="evenodd" clip-rule="evenodd" d="M30.1032 26.6382H34.1274L36.3476 29.2116L38.8107 26.6382H43.0084L38.4985 31.5846L42.8696 36.4641H38.8801L36.3476 33.7569L34.0233 36.4641H29.8604L34.3355 31.5846L30.1032 26.6382Z" fill="#8C97AA"/>
<path fill-rule="evenodd" clip-rule="evenodd" d="M54.4911 28.9775H47.1365V34.3918H54.4911V36.4639H47.1365C46.3895 36.4639 43.7715 34.8369 43.7715 33.5897V29.5457C43.7715 28.6842 45.8761 26.7383 47.1365 26.7383H54.5258L54.4911 28.9775Z" fill="#8C97AA"/>
<path fill-rule="evenodd" clip-rule="evenodd" d="M70.3452 36.464H73.9184V28.9442H79.6425V36.464H83.0973V29.9468C83.1218 28.651 81.3976 26.6646 79.7639 26.6882H70.4146L70.3452 36.464Z" fill="#8C97AA"/>
<path d="M98.8072 23.6777C99.0943 23.6777 99.3746 23.7487 99.648 23.8906C99.9215 24.0325 100.135 24.2356 100.287 24.4998C100.44 24.764 100.516 25.0394 100.516 25.3261C100.516 25.61 100.441 25.8829 100.291 26.1449C100.14 26.4069 99.9294 26.6103 99.6582 26.7551C99.387 26.9 99.1034 26.9724 98.8072 26.9724C98.5111 26.9724 98.2275 26.9 97.9563 26.7551C97.6851 26.6103 97.4739 26.4069 97.3228 26.1449C97.1717 25.8829 97.0962 25.61 97.0962 25.3261C97.0962 25.0394 97.1729 24.764 97.3262 24.4998C97.4796 24.2356 97.693 24.0325 97.9665 23.8906C98.2399 23.7487 98.5202 23.6777 98.8072 23.6777ZM98.8072 23.9506C98.567 23.9506 98.3332 24.01 98.1058 24.1286C97.8784 24.2472 97.7005 24.4168 97.5721 24.6373C97.4437 24.8578 97.3795 25.0874 97.3795 25.3261C97.3795 25.5634 97.4426 25.7908 97.5687 26.0084C97.6949 26.226 97.8713 26.3956 98.0979 26.5172C98.3245 26.6387 98.561 26.6995 98.8072 26.6995C99.0535 26.6995 99.29 26.6387 99.5166 26.5172C99.7432 26.3956 99.9192 26.226 100.045 26.0084C100.17 25.7908 100.233 25.5634 100.233 25.3261C100.233 25.0874 100.169 24.8578 100.041 24.6373C99.9136 24.4168 99.7357 24.2472 99.5075 24.1286C99.2794 24.01 99.046 23.9506 98.8072 23.9506ZM98.0571 26.2366V24.4637H98.6894C98.9055 24.4637 99.0618 24.4801 99.1585 24.5129C99.2552 24.5456 99.3323 24.6028 99.3897 24.6843C99.4471 24.7658 99.4758 24.8524 99.4758 24.9441C99.4758 25.0736 99.4278 25.1864 99.3319 25.2825C99.2359 25.3786 99.1087 25.4324 98.95 25.4441C99.015 25.4703 99.0671 25.5015 99.1064 25.5379C99.1804 25.6078 99.2711 25.725 99.3783 25.8895L99.6027 26.2366H99.2401L99.0769 25.9571C98.9485 25.7373 98.845 25.5998 98.7664 25.5445C98.7121 25.5037 98.6327 25.4834 98.5285 25.4834H98.354V26.2366H98.0571ZM98.354 25.2388H98.7143C98.8866 25.2388 99.004 25.2141 99.0667 25.1646C99.1294 25.1151 99.1608 25.0496 99.1608 24.9681C99.1608 24.9157 99.1457 24.8687 99.1155 24.8273C99.0852 24.7858 99.0433 24.7549 98.9897 24.7345C98.9361 24.7141 98.8367 24.7039 98.6917 24.7039H98.354V25.2388Z" fill="#8C97AA"/>
<path fill-rule="evenodd" clip-rule="evenodd" d="M59.2001 26.7783C58.0353 26.7783 56.0796 28.576 56.0796 29.5857V33.6272C56.0796 34.7057 58.0396 36.4638 58.9876 36.4638H65.9874C66.7642 36.4638 68.8226 34.8745 68.8226 33.6272V29.767C68.8226 28.5582 67.0407 26.7783 65.8235 26.7783H59.2001ZM59.5825 28.919H65.4411C65.4411 28.919 65.4867 34.1999 65.4411 34.3641C65.3954 34.5284 59.5825 34.3641 59.5825 34.3641V28.919Z" fill="#8C97AA"/>
<path fill-rule="evenodd" clip-rule="evenodd" d="M84.4814 36.464H88.0547V28.9442H93.7787V36.464H97.2335V29.9468C97.258 28.651 95.5338 26.6646 93.9001 26.6882H84.5508L84.4814 36.464Z" fill="#8C97AA"/>
</g>
<defs>
<clipPath id="clip0_2264_22751">
<rect width="97.1358" height="13.4755" fill="white" transform="translate(3.75 23.334)"/>
</clipPath>
</defs>
</svg>
