<svg width="105" height="60" viewBox="0 0 105 60" fill="none" xmlns="http://www.w3.org/2000/svg">
<g clip-path="url(#clip0_2264_22688)">
<mask id="mask0_2264_22688" style="mask-type:luminance" maskUnits="userSpaceOnUse" x="-268" y="-2" width="387" height="484">
<path d="M-267.848 481.312H118.852V-1.76742H-267.848V481.312Z" fill="white"/>
</mask>
<g mask="url(#mask0_2264_22688)">
<path d="M55.8566 23.6607C55.7286 23.818 55.6562 23.9937 55.6562 24.2991V32.6975H55.6103C55.6103 32.6975 51.0761 24.5023 50.857 24.1234C50.7018 23.8547 50.5285 23.6699 50.3003 23.5309C50.0721 23.4018 49.8348 23.3185 49.379 23.3185H47.8829C47.5357 23.3185 47.3172 23.4385 47.162 23.624C47.034 23.7806 46.9609 23.9569 46.9609 24.2617V36.1662C46.9609 36.4717 47.034 36.6473 47.162 36.8046C47.3172 36.9895 47.5357 37.1094 47.8829 37.1094H48.7312C49.0777 37.1094 49.2969 36.9895 49.452 36.8046C49.5794 36.6473 49.6525 36.4717 49.6525 36.1662V27.5639H49.6984C49.6984 27.5639 54.4058 36.0181 54.5978 36.3327C54.8622 36.7765 55.309 37.1094 55.9478 37.1094H57.3986C57.7451 37.1094 57.9643 36.9895 58.1195 36.8046C58.2469 36.6473 58.3199 36.4717 58.3199 36.1662V25.4271H77.3791C77.5712 25.4271 77.7166 25.3721 77.8265 25.2797C77.9448 25.1682 77.9998 25.0201 77.9998 24.7986V23.9845C77.9998 23.7623 77.9448 23.6141 77.8265 23.5034C77.7166 23.4109 77.5712 23.3552 77.3791 23.3552H56.5775C56.231 23.3552 56.0118 23.4758 55.8566 23.6607ZM64.1775 26.8423C61.0114 26.8423 59.2322 29.3494 59.2322 31.9949C59.2322 34.816 61.1395 37.2949 64.1956 37.2949C65.7195 37.2949 67.2156 36.7122 68.0729 35.6851C68.4472 35.2414 68.7485 34.6213 68.7485 34.2424C68.7485 34.1127 68.7207 34.0019 68.6483 33.9186C68.5753 33.8262 68.4653 33.7705 68.274 33.7705H66.805C66.5128 33.7705 66.3124 33.8813 66.1663 34.1035C65.7376 34.7419 65.1169 35.0749 64.2047 35.0749C62.836 35.0749 61.9515 34.0202 61.8875 32.864H68.2378C68.5203 32.864 68.7207 32.7991 68.8578 32.6608C69.013 32.5127 69.086 32.2997 69.086 31.9018C69.086 30.6905 68.7117 29.4327 67.9274 28.4705C67.1244 27.4991 65.9018 26.8423 64.1775 26.8423ZM73.9667 26.8423C71.4672 26.8423 69.825 28.0451 69.825 29.9688C69.825 30.6531 70.0713 31.2083 70.4728 31.6429C70.9383 32.1522 71.6043 32.5035 72.5715 32.7532L74.6604 33.2894C75.2352 33.4375 75.746 33.6132 75.746 34.1218C75.746 34.9084 74.9249 35.1765 74.0495 35.1765C73.6202 35.1765 73.1734 35.0932 72.8081 34.9084C72.5527 34.7786 72.3342 34.5938 72.179 34.344C72.042 34.131 71.9967 33.9737 71.7866 33.8538C71.6586 33.7797 71.5034 33.7705 71.2939 33.7705H70.1625C69.9162 33.7705 69.7979 33.8446 69.7157 33.9462C69.6336 34.0478 69.6058 34.1959 69.6058 34.344C69.6058 34.7137 69.7339 35.1765 70.0351 35.5927C70.7282 36.5359 72.179 37.2949 74.0307 37.2949C75.8559 37.2949 78.3832 36.5267 78.3832 34.0478C78.3832 33.41 78.2002 32.864 77.8627 32.4203C77.4341 31.8559 76.8231 31.4672 75.7828 31.1991L73.712 30.6623C72.854 30.4408 72.4525 30.2835 72.4525 29.7466C72.4525 29.2288 72.909 28.8126 73.9667 28.8126C74.5874 28.8126 75.1531 28.9516 75.5184 29.3402C75.819 29.664 75.7647 29.8305 76.002 29.9597C76.1475 30.0337 76.3117 30.0337 76.5677 30.0337H77.5983C77.7625 30.0337 77.8815 30.0062 77.972 29.9039C78.0457 29.8207 78.091 29.6916 78.091 29.4786C78.091 28.9974 77.7806 28.378 77.2337 27.9061C76.5037 27.2677 75.3542 26.8423 73.9667 26.8423ZM79.6511 27.1943H79.1403C78.9489 27.1943 78.8028 27.2493 78.6935 27.3417C78.5746 27.4532 78.5196 27.6013 78.5196 27.8229V28.4613C78.5196 28.6835 78.5746 28.831 78.6935 28.9424C78.8028 29.0348 78.9489 29.0905 79.1403 29.0905H79.6511V33.7056C79.6511 34.8894 79.9704 35.6294 80.5633 36.2219C81.1109 36.7673 81.8228 37.1094 83.0635 37.1094H83.8387C84.0307 37.1094 84.1762 37.0544 84.2861 36.9619C84.4044 36.8505 84.4774 36.7024 84.4774 36.4808V35.6759C84.4774 35.4537 84.4044 35.3063 84.2861 35.1948C84.1762 35.1024 84.0307 35.0467 83.8387 35.0467H83.7294C83.2367 35.0467 82.8992 34.9176 82.671 34.6954C82.3975 34.4365 82.2605 34.0386 82.2605 33.5208V29.0905H83.9214C84.1128 29.0905 84.2589 29.0348 84.3682 28.9424C84.4865 28.831 84.5415 28.6835 84.5415 28.4613V27.8229C84.5415 27.6013 84.4865 27.4532 84.3682 27.3417C84.2589 27.2493 84.1128 27.1943 83.9214 27.1943H82.2695V24.1785C82.2695 23.9379 82.1965 23.7623 82.0872 23.624C81.9501 23.4575 81.7588 23.3552 81.4762 23.3552H80.445C80.1618 23.3552 79.9704 23.4575 79.8334 23.624C79.7241 23.7623 79.6511 23.9379 79.6511 24.1785V27.1943ZM85.2352 36.2862C85.2352 36.5267 85.3076 36.7024 85.4175 36.8413C85.5539 37.0078 85.7459 37.1094 86.0285 37.1094H87.114C87.3972 37.1094 87.5886 37.0078 87.7256 36.8413C87.8349 36.7024 87.908 36.5267 87.908 36.2862V24.1791C87.908 23.9386 87.8349 23.7629 87.7256 23.624C87.5886 23.4575 87.3972 23.3552 87.114 23.3552H86.0285C85.7459 23.3552 85.5539 23.4575 85.4175 23.624C85.3076 23.7629 85.2352 23.9386 85.2352 24.1791V36.2862ZM61.9056 30.8937C62.0239 29.7558 62.8819 28.905 64.1866 28.905C65.4641 28.905 66.3486 29.7558 66.4676 30.8937H61.9056ZM97.789 25.4271C97.9803 25.4271 98.1265 25.3721 98.2357 25.2797C98.3547 25.1682 98.4096 25.0201 98.4096 24.7986V23.9379C98.4096 23.605 98.3456 23.4385 98.2357 23.3185C98.1355 23.2071 97.9713 23.1429 97.789 23.1429C97.6428 23.1429 97.4974 23.1612 97.251 23.1887L89.9698 23.9196C89.7603 23.9379 89.6601 24.0028 89.587 24.0861C89.5049 24.1785 89.4681 24.2991 89.4681 24.4656V24.946C89.4681 25.1315 89.5049 25.2148 89.5689 25.2888C89.6504 25.3813 89.7693 25.4271 89.9336 25.4271H97.789ZM93.7656 26.8423C90.5995 26.8423 88.8202 29.3494 88.8202 31.9949C88.8202 34.816 90.7275 37.2949 93.7837 37.2949C95.3076 37.2949 96.8036 36.7122 97.6609 35.6851C98.0353 35.2414 98.3366 34.6213 98.3366 34.2424C98.3366 34.1127 98.3088 34.0019 98.2357 33.9186C98.1633 33.8262 98.0534 33.7705 97.862 33.7705H96.3931C96.1009 33.7705 95.9004 33.8813 95.7543 34.1035C95.3257 34.7419 94.705 35.0749 93.7927 35.0749C92.424 35.0749 91.5389 34.0202 91.4755 32.864H97.8439C98.1265 32.864 98.3275 32.7991 98.4639 32.6608C98.6191 32.5127 98.6922 32.2997 98.6922 31.9018C98.6922 30.6905 98.3178 29.4327 97.5336 28.4705C96.7306 27.4991 95.4899 26.8423 93.7656 26.8423ZM91.4936 30.8937C91.6126 29.7558 92.4699 28.905 93.7746 28.905C95.0522 28.905 95.9366 29.7558 96.0556 30.8937H91.4936Z" fill="#8C97AA"/>
<path d="M36.6708 25.5376C34.309 21.966 32.2336 20.7625 31.6498 20.1962C31.0085 19.5716 30.5197 18.8637 30.2087 18.5228C29.5169 17.7566 28.6215 16.8108 27.1486 16.8108C25.7269 16.8108 24.7875 17.75 24.4823 18.5615C24.3938 18.7929 24.3239 19.076 24.2606 19.1789C24.1209 19.411 23.4925 20.4984 23.2319 20.9297H24.4067L23.8352 22.0236C24.5017 21.8755 24.9776 21.766 25.6125 21.766C26.1775 21.766 26.5836 21.9017 26.7614 22.2616C27.0917 22.9315 27.0917 24.9581 27.6504 26.4841C28.1708 27.9182 29.4406 29.3215 30.8688 30.3965C30.8876 30.409 30.907 30.4155 30.9322 30.4155C31.002 30.4155 31.0466 30.3644 31.0466 30.3126C31.0466 30.2739 31.0337 30.2484 31.002 30.2162C29.8085 29.0063 28.8374 27.6678 28.3169 26.2009C27.8023 24.772 27.885 22.7637 27.4344 21.869C27.1357 21.2771 26.5015 21.123 25.917 21.123C25.4476 21.123 25.0093 21.2194 24.8062 21.264L25.3202 20.3824H24.4507C24.6349 20.0546 24.825 19.7518 24.9207 19.5716C25.0028 19.4169 25.0351 19.2242 25.1366 18.9607C25.4664 18.1171 26.1963 17.5829 27.1486 17.5829C28.3421 17.5829 29.0404 18.3616 29.7322 19.1403C30.0496 19.5008 30.5701 20.2539 31.1733 20.8137C31.5858 21.1997 32.3733 21.631 33.5856 22.8993C34.2838 23.6328 35.0965 24.5852 35.9532 25.8594C39.0197 30.409 41.0317 34.4184 42.1554 37.5463L42.1366 37.5594C38.9182 35.3452 36.131 33.2537 33.8842 30.6731C32.2905 28.8391 30.907 26.7154 29.7005 24.0058C29.6178 23.8255 29.5486 23.6584 29.4723 23.4847C29.4406 23.4139 29.4089 23.3942 29.3579 23.3942C29.2945 23.3942 29.2499 23.4394 29.2499 23.5037C29.2499 23.5745 29.2816 23.7292 29.3514 24.0379C29.9928 26.8439 31.7701 29.3602 33.6683 31.4518C35.5601 33.5309 37.6988 35.3197 39.4574 36.6201L40.8287 40.5968C40.8604 40.6938 40.8985 40.7967 40.8985 40.8931C40.8985 40.9638 40.8791 41.0215 40.8352 41.0602C40.797 41.0989 40.7466 41.1185 40.6321 41.1185H40.2196C40.0419 41.1185 39.9714 41.0923 39.908 41.0412C39.8447 40.9894 39.8007 40.9121 39.7684 40.8223C39.6481 40.4486 38.924 38.3571 38.785 37.9323C38.7591 37.8556 38.7145 37.8294 38.6641 37.8294C38.6007 37.8294 38.5561 37.8812 38.5561 37.9389C38.5561 37.9907 38.5749 38.0484 38.6072 38.2286C38.7908 39.181 39.0067 40.2494 39.0953 40.6551C39.1341 40.8413 39.1781 41.0156 39.1781 41.1441C39.1781 41.2595 39.1529 41.3243 39.0578 41.4207L38.6324 41.8585C38.5309 41.9615 38.4734 41.987 38.3912 41.987C38.2897 41.987 38.207 41.9162 38.1688 41.736C37.6865 39.451 36.9566 36.6201 36.7659 35.8342C36.7212 35.6612 36.6896 35.5642 36.5881 35.5642C36.4995 35.5642 36.4678 35.6284 36.4678 35.7057C36.4678 35.7634 36.4801 35.8342 36.4866 35.886C36.601 36.6968 37.0646 39.651 37.5656 42.3475C37.6548 42.8109 37.8262 43.0679 38.2199 43.0679C38.3977 43.0679 38.5684 42.9971 38.7274 42.843C38.988 42.5789 39.0636 42.5081 39.3753 42.1994C39.597 41.9805 39.7496 41.8907 40.1304 41.8907H41.0698C41.2923 41.8907 41.4125 41.833 41.5205 41.7294C41.622 41.6331 41.6853 41.498 41.6853 41.3047C41.6853 41.1054 41.6349 40.9448 41.5651 40.7449C41.3239 40.0888 40.5494 37.8681 40.3205 37.2441L40.3399 37.231C41.1332 37.8425 42.2886 38.6212 42.7967 38.6212C42.9551 38.6212 43.0508 38.5504 43.0508 38.2994C43.0508 37.1156 41.108 32.2436 36.6708 25.5376Z" fill="#8C97AA"/>
<path d="M14.8783 18.0603C15.0115 17.7641 15.3037 17.5582 15.6528 17.5582C16.1287 17.5582 16.5095 17.9319 16.5095 18.4274C16.5095 18.7164 16.3763 18.9681 16.1668 19.1222C16.2114 19.29 16.2431 19.4374 16.2431 19.579C16.2431 20.1198 15.9257 20.4993 15.3418 20.6992C15.2655 21.0269 15.1259 21.3232 14.897 21.5421C14.5162 21.9151 14.1289 21.9151 14.1289 22.0698C14.1289 22.1537 14.1865 22.2048 14.3449 22.2048C15.0496 22.2048 15.7414 21.8063 15.8241 21.143C16.4972 20.9116 16.9032 20.2227 16.9032 19.676C16.9032 19.5338 16.8903 19.4119 16.8334 19.2965C17.0177 19.1156 17.2336 18.8069 17.2336 18.35C17.2336 17.9509 17.0616 17.5458 16.7571 17.2495C16.4907 16.9854 16.1157 16.8117 15.678 16.8117C15.0431 16.8117 14.6306 17.1597 14.396 17.5006C13.7035 17.5006 12.8087 18.2792 12.8087 19.3929H12.7137C12.6497 19.0068 12.2566 18.7486 11.9262 18.7296C11.6598 17.9187 11.0566 17.224 10.0661 17.224C9.95231 17.224 9.81266 17.2305 9.69176 17.2495C9.40017 16.9788 9.07626 16.8117 8.62562 16.8117C7.76185 16.8117 7.05713 17.5137 7.05713 18.4012C7.05713 18.955 7.30475 19.3345 7.77478 19.6695C7.77478 19.6695 7.76832 19.7403 7.76832 19.7724C7.76832 20.4803 8.52994 21.5874 9.66008 21.5874C9.66008 21.767 9.88249 22.0121 10.1301 22.0567V22.1471H10.0344C8.47951 22.1471 7.81939 22.9068 7.81939 23.4148C7.35583 23.6081 7.05713 24.1292 7.05713 24.6117C7.05713 25.5706 7.74957 26.2529 8.66377 26.2529C8.96829 26.2529 9.27927 26.131 9.49521 25.9632C9.65361 26.0209 9.85663 26.053 10.0661 26.053C10.5045 26.053 10.9932 25.899 11.3359 25.3903C11.387 25.3969 11.4309 25.3969 11.482 25.3969C12.0406 25.3969 12.5229 25.0233 12.777 24.5343C12.8404 24.4124 12.8656 24.316 12.8656 24.2446C12.8656 24.1745 12.8339 24.1161 12.7641 24.1161C12.6755 24.1161 12.6626 24.2 12.5042 24.3482C12.1486 24.6765 11.6023 24.7985 11.0437 24.7985C10.7708 25.2042 10.4346 25.4166 10.0474 25.4166C9.76159 25.4166 9.53982 25.3392 9.31095 25.1845C9.12669 25.3903 8.89846 25.4742 8.67605 25.4742C8.17499 25.4742 7.81939 25.1203 7.81939 24.6051C7.81939 24.2446 8.04762 23.9234 8.36507 23.8009C8.42196 23.1637 9.09501 22.7324 9.93292 22.7324C10.0409 22.7324 10.1489 22.739 10.2633 22.7521C10.39 22.5463 10.6945 22.3274 11.1264 22.269C11.2156 22.2566 11.2848 22.25 11.3359 22.2245C11.387 22.1982 11.4122 22.1471 11.4122 22.0888C11.4122 22.0377 11.3928 21.9924 11.3424 21.9603C11.2978 21.9348 11.2215 21.9223 11.1329 21.9026C10.7327 21.8253 10.2568 21.5743 10.0157 20.9627C9.05686 20.9627 8.35214 20.184 8.35214 19.309V19.2513C8.03469 19.1222 7.81939 18.8134 7.81939 18.4464C7.81939 17.964 8.19374 17.5779 8.66959 17.5779C8.95536 17.5779 9.20298 17.7195 9.36203 17.9319C9.49521 17.8932 9.64715 17.8801 9.79327 17.8801C10.5045 17.8801 11.2661 18.3369 11.4122 19.2251C12.3264 19.309 12.5423 20.0942 12.5992 20.4226C12.6309 20.5897 12.6561 20.7313 12.7641 20.7313C12.8785 20.7313 12.9037 20.6022 12.9419 20.4285C13.0117 20.1008 13.1326 19.8366 13.3738 19.6308C13.3738 18.7872 13.9957 18.0603 14.8783 18.0603Z" fill="#8C97AA"/>
<path d="M16.7251 23.1047C16.4264 23.536 16.2111 23.7484 15.5316 24.5592C14.6368 25.6341 14.1668 26.5033 13.3857 28.4336C13.5131 28.4205 13.6974 28.408 13.9004 28.408C14.0019 28.408 14.084 28.408 14.2178 28.4139L14.3129 28.2081C14.7512 27.2557 15.3409 25.9684 16.1665 24.9773L16.4523 24.6365C17.3025 23.6264 17.8294 23.0274 18.1598 21.6502C18.2742 21.1613 18.3692 20.7241 18.6932 20.4081C18.9847 20.125 19.3533 20.0031 19.7276 20.0031C20.0451 20.0031 20.2804 20.0804 20.6231 20.2279C20.934 20.3629 21.0478 20.3891 21.3782 20.3891C21.4926 20.3891 21.5748 20.3826 21.6511 20.376L21.2069 20.981L21.8101 21.4123C21.0543 21.6371 20.6547 22.3778 20.5209 22.7186C20.4957 22.7894 20.4834 22.8346 20.4834 22.8799C20.4834 22.9317 20.5086 22.9828 20.5849 22.9828C20.667 22.9828 20.7304 22.9185 20.8384 22.7894C21.2069 22.3391 21.4991 22.0297 22.8568 21.5991L21.8987 20.865L22.6221 19.7907H21.9433C21.5114 19.7907 21.2256 19.7841 20.8513 19.6104C20.3431 19.3725 20.0832 19.2696 19.6326 19.2696C19.0804 19.2696 18.5787 19.4689 18.1662 19.8549C17.6897 20.2987 17.5436 20.8912 17.3729 21.5414C17.2391 22.0429 17.0807 22.5967 16.7251 23.1047Z" fill="#8C97AA"/>
<path d="M18.1854 27.4874C17.8233 27.9829 17.3281 28.6325 16.9473 29.3213C17.0682 29.3797 17.4684 29.5986 17.608 29.6753C18.0457 29.0061 18.6554 28.1828 19.055 27.5582C19.417 26.9918 19.5631 26.7473 19.5884 25.9877C19.5948 25.8592 19.5948 25.7366 19.6071 25.6147C19.6388 25.2221 19.7409 24.8229 20.1088 24.4565C20.3817 24.1793 20.7754 24.0383 21.1691 24.0383C21.55 24.0383 21.7717 24.1471 22.1021 24.1471C22.3368 24.1471 22.5081 24.0895 22.6607 24.0318L22.7816 23.9865L22.4894 24.6951L23.1747 24.9776C22.737 25.2542 21.7782 26.4452 21.7782 27.8544C21.7782 28.3631 21.8545 28.8324 21.9624 29.2506C21.9754 29.2958 22.0006 29.341 22.0704 29.341C22.1338 29.341 22.1784 29.3023 22.1848 29.2315L22.1913 29.0834C22.2101 28.6521 22.2417 27.9704 22.4131 27.3589C22.6988 26.3292 23.4669 25.3637 24.235 24.9003L23.143 24.4178L23.613 23.2531L23.099 23.3625C22.7881 23.4268 22.5592 23.4845 22.2864 23.4845C22.1086 23.4845 21.9055 23.4589 21.6644 23.4006C21.4801 23.356 21.2829 23.3173 21.0043 23.3173C20.5026 23.3173 19.9627 23.51 19.5948 23.8705C18.9218 24.5207 18.8836 25.2221 18.839 25.8467C18.7821 26.6766 18.6296 26.8824 18.1854 27.4874Z" fill="#8C97AA"/>
<path d="M34.4747 27.8803C34.4301 27.8226 34.3919 27.7964 34.3415 27.7964C34.2652 27.7964 34.2271 27.8482 34.2271 27.9059C34.2271 27.9963 34.2904 28.1058 34.4495 28.3765C34.9318 29.2063 35.5285 30.0427 36.2649 30.8286C37.0582 31.6839 37.9912 32.4816 38.9881 33.1961L39.2991 33.415C39.3437 33.4478 39.3754 33.4668 39.4136 33.4668C39.4769 33.4668 39.5215 33.4026 39.5215 33.3508C39.5215 33.3187 39.5086 33.2859 39.4705 33.2538C38.544 32.3984 37.547 31.3556 36.6141 30.352C35.8835 29.5603 35.1348 28.7239 34.4747 27.8803Z" fill="#8C97AA"/>
<path d="M14.0465 24.9648C14.1415 24.8043 14.4273 24.4116 14.5417 24.2891C14.0529 23.2856 13.2532 22.3266 12.9041 21.9464L12.6118 22.2362C12.9487 22.7317 13.5131 23.6906 14.0465 24.9648Z" fill="#8C97AA"/>
<path d="M9.39307 19.1537C9.33553 19.1019 9.32324 19.0698 9.32324 19.0311C9.32324 18.9865 9.35492 18.9348 9.42475 18.9348C9.44996 18.9348 9.47518 18.9413 9.5075 18.9544C9.97689 19.1471 10.3771 19.3726 10.7327 19.6492C11.0307 19.8806 11.323 20.1644 11.6081 20.5052L11.3417 20.814C11.012 20.5367 9.94521 19.6302 9.39307 19.1537Z" fill="#8C97AA"/>
<path d="M13.8944 21.3101L13.5518 21.0977C13.7735 20.5635 14.047 20.0745 14.3703 19.7075C14.5991 19.444 14.8151 19.2309 15.0562 19.0192C15.1131 18.974 15.1448 18.9353 15.2017 18.9353C15.2657 18.9353 15.3103 18.9871 15.3103 19.0382C15.3103 19.0638 15.2974 19.0959 15.2722 19.1346C14.8849 19.7461 14.1291 20.9561 13.8944 21.3101Z" fill="#8C97AA"/>
<path d="M9.59026 24.2954C9.5075 24.3275 9.46936 24.3472 9.42539 24.3472C9.35557 24.3472 9.32324 24.2888 9.32324 24.2436C9.32324 24.199 9.34264 24.1735 9.38725 24.1341C10.1676 23.5167 10.8536 23.2722 11.7995 23.111L11.9133 23.4977L9.59026 24.2954Z" fill="#8C97AA"/>
<path d="M25.873 19.3017C25.873 19.0762 25.9875 18.6705 26.4 18.6705C26.5396 18.6705 26.6728 18.7026 26.7808 18.7544C26.9334 18.8252 27.0349 18.9281 27.0349 19.0376C27.0349 19.1536 26.9204 19.2696 26.7491 19.4112C26.5713 19.5587 26.3431 19.6943 26.1588 19.6943C25.9371 19.6943 25.873 19.4813 25.873 19.3017Z" fill="#8C97AA"/>
<path d="M19.4297 21.1812C19.4297 20.9046 19.5946 20.6017 19.912 20.6017C20.0517 20.6017 20.2165 20.6594 20.3374 20.7761C20.4072 20.8403 20.4389 20.9105 20.4389 20.9819C20.4389 21.1366 20.2928 21.2841 20.1215 21.387C19.9883 21.4643 19.8486 21.5161 19.7284 21.5161C19.5312 21.5161 19.4297 21.3929 19.4297 21.1812Z" fill="#8C97AA"/>
<path d="M20.9209 25.1518C20.9209 25.0876 20.9274 25.0102 20.9526 24.9329C21.0037 24.7657 21.111 24.6045 21.378 24.6045C21.4989 24.6045 21.6314 24.6366 21.7394 24.7146C21.8351 24.7789 21.8732 24.8621 21.8732 24.946C21.8732 25.2226 21.4161 25.5444 21.1873 25.5444C21.0224 25.5444 20.9209 25.3832 20.9209 25.1518Z" fill="#8C97AA"/>
<path d="M18.4202 33.2734C17.5636 33.2734 17.1821 32.8618 17.1821 32.3407C17.1821 31.4263 18.7629 30.5323 20.1846 29.9784L20.5532 30.4615C19.6771 30.8148 17.9127 31.5751 17.9127 32.2313C17.9127 32.4626 18.0459 32.6304 18.5786 32.6304C19.5058 32.6304 20.5027 32.1729 21.4228 31.7161C21.4926 31.6839 21.5753 31.6518 21.6516 31.6518C21.7719 31.6518 21.8482 31.6905 21.9367 31.819L22.0893 32.0313C21.0167 32.6304 19.6771 33.2734 18.4202 33.2734Z" fill="#8C97AA"/>
<path d="M20.7813 33.518C19.9434 33.9938 19.0738 34.3098 18.3057 34.3098C17.4484 34.3098 16.6868 33.9362 16.0519 32.9641C15.7855 32.5525 15.576 32.0379 15.322 31.5811C15.0174 31.0403 14.6871 30.7506 14.1097 30.7506C13.5828 30.7506 13.0681 30.9695 12.5225 31.2075L12.5477 31.33C12.5923 31.5293 12.6686 31.6709 12.8522 31.6709C12.935 31.6709 13.0177 31.6329 13.0623 31.6198C13.3668 31.5227 13.5886 31.4388 13.9002 31.4388C14.3761 31.4388 14.6043 31.7227 14.9282 32.4175L15.0491 32.675C14.7187 32.7911 13.9442 32.8487 13.3668 32.8487H13.094L13.1386 33.1253C13.1574 33.2414 13.202 33.3377 13.297 33.3829C13.4108 33.4406 13.5763 33.4472 13.8621 33.4472C14.5856 33.4472 15.1125 33.3574 15.417 33.2794C16.198 34.4579 17.2706 34.9082 18.3057 34.9082C19.1876 34.9082 20.083 34.5798 20.9404 34.104L20.7813 33.518Z" fill="#8C97AA"/>
<path d="M21.6451 33.8079L21.4932 33.2153C22.8005 32.5015 23.994 31.9286 25.8987 31.7418C25.9368 32.4819 25.8857 33.4152 26.4256 33.4152C26.9202 33.4152 27.9992 32.1214 29.2438 30.4997C29.3583 30.6092 29.5419 30.7252 29.7074 30.8537L29.3899 31.2719C28.177 32.8555 27.1426 34.207 26.2917 34.207C25.4985 34.207 25.1998 33.2605 25.1875 32.5526C23.9752 32.6752 22.8321 33.0868 21.6451 33.8079Z" fill="#8C97AA"/>
<path d="M38.4424 20.8906C37.9471 20.8906 37.8075 20.6134 37.8075 20.2214C37.8075 19.4106 38.3092 18.2458 38.6266 17.5825H37.8579C37.4584 18.3678 35.884 20.8841 35.0332 21.9269L35.522 22.4604C35.9791 21.9459 36.4808 21.0709 37.0265 20.2083H37.128C37.128 20.2535 37.1222 20.3046 37.1222 20.3499C37.1222 21.0774 37.49 21.6175 38.3978 21.6175C38.9564 21.6175 39.8324 21.3344 40.6581 21.0512C41.3434 20.8133 41.9718 20.5688 42.2828 20.479V19.7069C41.9272 19.8157 41.2037 20.0988 40.4544 20.363C39.6676 20.6396 38.893 20.8906 38.4424 20.8906Z" fill="#8C97AA"/>
<path d="M40.1366 23.2276C40.8982 22.8999 42.2631 22.346 43.0505 22.0563V21.2711C41.4698 21.8636 38.6955 23.0284 36.8037 24.0712C36.8548 24.1348 37.1852 24.6047 37.2227 24.6631C38.0224 24.3281 38.7401 24.1092 39.3873 24.1092C40.2956 24.1092 41.0379 24.1092 42.2825 23.813V23.2211C41.5842 23.3502 40.8413 23.5042 40.359 23.5042C40.0732 23.5042 39.9905 23.4656 39.9905 23.3692C39.9905 23.3115 40.0286 23.2729 40.1366 23.2276Z" fill="#8C97AA"/>
</g>
<path d="M23.8735 26.8445L23.5684 27.437H26.8127L26.5715 26.8445H23.8735Z" fill="#8C97AA"/>
<mask id="mask1_2264_22688" style="mask-type:luminance" maskUnits="userSpaceOnUse" x="-268" y="-2" width="387" height="484">
<path d="M-267.848 481.312H118.852V-1.76742H-267.848V481.312Z" fill="white"/>
</mask>
<g mask="url(#mask1_2264_22688)">
<path d="M12.1861 30.3788C12.5288 30.3788 12.8081 30.2628 13.0751 30.154C13.3285 30.0504 13.5826 29.9475 13.9253 29.9475C14.738 29.9475 15.7407 30.3467 16.6233 30.7262C16.6743 30.7459 16.7312 30.7583 16.7881 30.7583C16.9284 30.7583 17.0364 30.6941 17.1056 30.559L17.22 30.3467C16.2489 29.7738 14.6998 29.1623 13.8936 29.1623C13.5257 29.1623 13.2587 29.2593 13.0053 29.3615C12.7195 29.4782 12.4719 29.6001 12.2113 29.6001C11.5706 29.6001 9.92645 28.9564 9.92645 28.3324C9.92645 27.599 12.5417 27.3158 12.8275 27.3158L13.0874 26.7167C11.1898 26.7167 8.9295 27.3925 8.9295 28.2872C8.9295 28.5448 9.07561 28.6733 9.07561 28.9112C9.07561 29.233 8.9295 29.452 8.9295 29.8125C8.9295 30.0504 9.06915 30.3532 9.23401 30.6174C9.41181 30.894 9.62129 31.0736 9.62129 31.3056C9.62129 31.4793 9.5075 31.6851 9.5075 32.0909C9.5075 32.9593 9.99628 33.4876 10.948 34.5233L11.1387 34.7291C10.3519 35.0385 8.88488 35.6821 8.54222 35.8296C7.35518 36.3317 7.05713 36.9432 7.05713 37.9087C7.05713 38.2817 7.05713 38.7064 7.08234 39.0859H7.31057C7.78707 39.0859 7.84396 38.7969 7.84396 38.5203C7.84396 38.3335 7.8375 38.1211 7.8375 37.8891C7.84396 37.3555 7.86336 36.879 8.71355 36.4929C9.05686 36.3382 10.7385 35.6435 11.9895 35.1027C12.3574 34.9415 12.7001 34.8064 13.0809 34.8064C13.5063 34.8064 13.9951 34.9932 14.6048 35.3603C15.1188 35.669 15.6586 36.0872 16.0841 36.5696L16.6233 36.1514C16.1597 35.5982 15.519 35.1027 14.8776 34.7166C14.2363 34.3306 13.6654 34.1051 13.1831 34.1051C12.9736 34.1051 12.8022 34.1438 12.6561 34.1824C12.4848 34.2277 12.3257 34.2788 12.1227 34.2788C11.888 34.2788 11.6908 34.2211 11.4051 33.8862C11.2971 33.7643 10.6118 32.9725 10.4657 32.7411C10.3958 32.6316 10.2691 32.4127 10.2691 32.1551C10.2691 32.0456 10.2879 31.9172 10.3519 31.8011C10.9415 32.2646 11.6721 32.5477 12.5604 32.6572L12.4402 32.0456C11.1639 31.7048 9.80555 30.5656 9.80555 29.8321C9.80555 29.6775 9.8437 29.568 9.90124 29.433C10.3958 29.8964 11.5577 30.3788 12.1861 30.3788Z" fill="#8C97AA"/>
<path d="M21.3213 30.4956C22.1211 29.9227 22.946 29.8585 23.6126 29.8585C24.0128 29.8585 24.4822 29.9161 24.9774 29.9804C25.3777 30.0322 25.7391 30.0708 26.171 30.0708C27.0405 30.0708 27.9166 29.749 28.2974 29.5812C28.4054 29.7169 28.5896 29.8971 28.7358 30.0256C28.5515 30.1416 27.3839 30.7846 26.1903 30.7846C25.6634 30.7846 25.1617 30.7211 24.7298 30.6627C24.349 30.6116 23.9365 30.5664 23.5363 30.5664C23.0986 30.5664 22.2161 30.6948 21.6704 30.959L21.3213 30.4956Z" fill="#8C97AA"/>
<path d="M33.1092 32.7933C32.1569 34.8272 30.7093 36.3072 29.2242 37.1632C28.5195 37.5683 27.8846 37.8324 26.5139 37.8324H23.5489C22.4892 37.8324 21.8227 37.974 21.3022 38.109C20.7429 38.2572 20.388 38.4047 19.8229 38.4047C18.985 38.4047 18.2105 37.9865 17.8361 37.588L18.5344 37.0282L18.1852 36.5576C17.9822 36.7064 15.5002 38.5659 14.9791 38.9841L14.9474 38.9651C14.9603 38.8366 14.9603 38.7206 14.9603 38.6046C14.9603 37.1888 14.3125 36.8473 13.3291 36.4488L12.6625 36.8473C14.0144 37.3048 14.3506 37.6712 14.3506 38.6944C14.3506 39.5058 14.0649 39.827 13.6524 40.0721C13.227 40.3232 12.7 40.4386 12.2371 40.4386C12.0399 40.4386 11.9514 40.4772 11.8815 40.548C11.8052 40.6254 11.7671 40.7414 11.7671 40.902V41.1274H11.9261C12.7763 41.1274 13.5638 40.9924 14.4269 40.3035L17.2394 38.0769C17.6389 38.5403 18.6488 39.184 19.8417 39.184C20.5147 39.184 20.9466 39.0162 21.5686 38.8556C22.0509 38.733 22.5209 38.6236 23.5489 38.6236H26.5262C28.0501 38.6236 28.7865 38.3017 29.5985 37.839C31.3636 36.8348 32.8681 35.1359 33.7189 33.1852C33.4965 33.0443 33.287 32.9152 33.1092 32.7933Z" fill="#8C97AA"/>
<path d="M28.3293 35.2116C29.0974 33.963 29.7827 32.8559 31.465 31.9553C31.2872 31.8459 31.0338 31.6787 30.8999 31.5883C30.2463 31.878 29.5991 32.4567 29.047 33.0427C27.7772 34.3812 27.891 35.1533 26.552 35.6751C26.2151 35.8035 25.8026 35.9451 25.2757 36.0677C24.9647 35.0956 24.1844 34.1301 23.3587 34.1301C22.7872 34.1301 22.1271 34.4323 21.3655 34.7738C20.4707 35.173 19.6515 35.6298 19.3916 35.8035L19.7407 36.28C20.0071 36.1313 20.7752 35.7452 21.5433 35.4109C22.2098 35.1212 22.8131 34.8833 23.2191 34.8833C23.8727 34.8833 24.2982 35.6364 24.5335 36.2407C23.6762 36.4472 22.2667 36.4983 21.842 36.4983C21.6448 36.4983 21.575 36.5304 21.5051 36.5888C21.4418 36.6465 21.3907 36.7494 21.359 36.8909L21.3086 37.1099H21.765C24.1398 37.1099 26.3806 36.7304 27.8211 35.8422C28.0248 35.9005 28.2026 35.9386 28.4308 35.9386C29.2558 35.9386 30.1066 35.4817 30.64 35.0635C30.8301 34.9154 30.8747 34.7797 30.8747 34.6322C30.8747 34.5614 30.8683 34.4972 30.8618 34.4323L30.8366 34.1819C30.075 34.7928 29.4401 35.2503 28.6532 35.2503C28.5136 35.2503 28.4121 35.2372 28.3293 35.2116Z" fill="#8C97AA"/>
</g>
</g>
<defs>
<clipPath id="clip0_2264_22688">
<rect width="92.25" height="26.8808" fill="white" transform="translate(6.75 16.5)"/>
</clipPath>
</defs>
</svg>
