<svg width="105" height="60" viewBox="0 0 105 60" fill="none" xmlns="http://www.w3.org/2000/svg">
<g clip-path="url(#clip0_2264_22763)">
<path d="M24.131 33.6972C24.3905 31.5846 23.0208 30.2371 19.4054 29.0907C17.6542 28.4971 16.8292 27.7198 16.8485 26.6481C16.9216 25.4618 18.0342 24.5965 19.5097 24.5676C20.5323 24.5879 21.6683 24.8361 22.7729 25.5683C22.9042 25.6504 22.9966 25.6376 23.0712 25.5254C23.1735 25.3619 23.4272 24.9695 23.5126 24.8288C23.5704 24.7369 23.5816 24.6182 23.4353 24.5124C23.2259 24.358 22.6387 24.0455 22.3234 23.9145C21.4668 23.5582 20.5054 23.3338 19.4802 23.3358C17.3203 23.3449 15.6184 24.7024 15.4764 26.5141C15.3835 27.8213 16.0348 28.8832 17.4335 29.6928C17.7298 29.8644 19.3343 30.4984 19.9724 30.6957C21.9799 31.3168 23.0223 32.43 22.777 33.7279C22.5543 34.9055 21.3073 35.666 19.5885 35.6891C18.2256 35.6375 16.9992 35.0856 16.0482 34.3506C16.0241 34.3328 15.9047 34.2408 15.8885 34.2284C15.7709 34.1369 15.6425 34.1429 15.5645 34.2613C15.5066 34.3483 15.1391 34.8757 15.0463 35.0142C14.9591 35.1361 15.0058 35.2031 15.0963 35.2779C15.4937 35.607 16.0209 35.9669 16.3804 36.1491C17.3681 36.6494 18.4403 36.9237 19.5809 36.9667C20.3144 37.0161 21.2396 36.8595 21.9299 36.5684C23.17 36.0454 23.9708 35.0009 24.131 33.6972ZM19.6695 15.0756C17.3293 15.0756 15.4217 17.2671 15.3324 20.0102H24.0067C23.9173 17.2671 22.0097 15.0756 19.6695 15.0756ZM28.5542 40.4824L28.4646 40.4831L10.6023 40.4805H10.6019C9.38692 40.4353 8.49351 39.4569 8.37162 38.2422L8.35968 38.0233L7.561 20.566L7.5611 20.5659C7.55998 20.5527 7.55957 20.5394 7.55957 20.5259C7.55957 20.2443 7.7868 20.0153 8.06906 20.0103L13.6994 20.0102C13.8374 16.3881 16.4576 13.5 19.6695 13.5C22.8815 13.5 25.5016 16.3881 25.6396 20.0102H31.2539H31.2619C31.5487 20.0102 31.781 20.241 31.781 20.5259C31.781 20.5348 31.7808 20.5437 31.7804 20.5525V20.5528L30.9053 38.0789L30.8973 38.2273C30.7916 39.4571 29.7903 40.4491 28.5542 40.4824ZM41.4299 28.8537C45.2766 29.9975 46.7898 31.4283 46.5479 33.7252C46.3989 35.1403 45.5472 36.2899 44.2124 36.8789C43.4766 37.2035 42.491 37.388 41.7047 37.3489C40.4943 37.3243 39.3501 37.0536 38.2909 36.5411C37.9082 36.3561 37.3443 35.9885 36.9055 35.6388L36.904 35.6374C36.6989 35.466 36.6745 35.3545 36.8148 35.1478C36.8511 35.0917 36.9175 34.9917 37.071 34.7617C37.2028 34.5643 37.3343 34.3658 37.3407 34.3561C37.5049 34.1099 37.6783 34.1099 37.9176 34.2733C37.9192 34.2745 37.9409 34.2905 38.0024 34.3359C38.0513 34.3719 38.0814 34.3941 38.0869 34.3981C39.176 35.2077 40.4338 35.664 41.6874 35.6898C43.4031 35.6372 44.6129 34.8719 44.8074 33.7363C45.0214 32.4871 43.9826 31.4163 41.9537 30.8285C41.2437 30.6228 39.6927 30.0451 39.2597 29.819C37.7378 28.975 37.0041 27.8278 37.0804 26.4004C37.2008 24.4244 39.0234 22.9241 41.3511 22.8741C42.374 22.8545 43.3978 23.0457 44.3841 23.435C44.7396 23.5754 45.3624 23.8955 45.5871 24.0546C45.8481 24.2378 45.8481 24.3641 45.721 24.6009C45.703 24.6317 45.6352 24.7292 45.4594 24.9789L45.4588 24.9797C45.2733 25.2432 45.2177 25.3228 45.2014 25.3498C45.0487 25.5462 44.9207 25.6069 44.6595 25.4502C43.6324 24.7963 42.5909 24.4878 41.4136 24.4848C39.9627 24.5384 38.8969 25.393 38.8458 26.5264C38.8462 27.5476 39.6608 28.2893 41.4299 28.8537ZM52.22 28.2809C54.5667 28.2809 56.5047 30.1633 56.5134 32.4699V36.9758C56.5134 37.2359 56.4463 37.2972 56.1893 37.2972H55.1111C54.8517 37.2972 54.787 37.2359 54.787 36.9758V32.4833C54.7812 31.0924 53.6338 29.9671 52.22 29.9671C50.8097 29.9671 49.6638 31.0871 49.6529 32.4735V36.9758C49.6529 37.1997 49.5643 37.2973 49.3289 37.2973H48.2481C47.9912 37.2973 47.9241 37.2027 47.9241 36.9758V23.1904C47.9241 22.9537 47.9912 22.8691 48.2481 22.8691H49.3289C49.5605 22.8691 49.6529 22.9583 49.6529 23.1904V29.123C50.3911 28.5806 51.2866 28.2809 52.22 28.2809ZM62.5309 35.6734C64.1555 35.6734 65.4719 34.3917 65.4719 32.8113C65.4719 31.2309 64.1554 29.9492 62.5309 29.9492C60.9062 29.9492 59.5897 31.2309 59.5897 32.8113C59.5897 34.3917 60.9062 35.6734 62.5309 35.6734ZM62.5318 28.2903C65.0968 28.2903 67.1765 30.315 67.1765 32.8135C67.1765 35.312 65.0968 37.3368 62.5318 37.3368C59.9668 37.3368 57.8869 35.312 57.8869 32.8135C57.8869 30.315 59.9667 28.2903 62.5318 28.2903ZM91.228 31.7635H96.3734C96.0033 30.7202 94.9269 29.9405 93.7779 29.9405C92.5864 29.9405 91.5656 30.6692 91.228 31.7635ZM97.6496 33.4221C97.642 33.4221 97.6343 33.4219 97.6291 33.4217H91.1222C91.2873 34.2519 91.8612 34.9589 92.655 35.3545C92.8605 35.4521 93.0844 35.5331 93.3234 35.5969C94.4859 35.8386 95.8203 35.6625 96.8373 34.7649C96.8519 34.749 96.8795 34.7317 96.9093 34.7057C97.0797 34.5563 97.1996 34.5941 97.3333 34.7598C97.3333 34.7598 97.5242 35.0235 97.8654 35.563C98.0123 35.7905 98.0015 35.8998 97.7553 36.152C97.7452 36.1621 97.7259 36.1801 97.6975 36.2049C97.6507 36.2457 97.5949 36.291 97.53 36.3398C97.345 36.4783 97.1237 36.6167 96.8659 36.7456C95.9132 37.2224 94.739 37.4468 93.3433 37.2799C93.297 37.2729 93.26 37.2671 93.2242 37.2611V37.2636L93.1448 37.2489C92.1247 37.06 91.2084 36.5549 90.5343 35.8177C90.5306 35.8139 90.5304 35.8137 90.5295 35.8125C89.9246 35.1502 89.5356 34.3259 89.4138 33.4217H89.4128L89.4056 33.3628C89.3839 33.1787 89.3728 32.9931 89.3728 32.8065C89.3728 30.3089 91.344 28.2832 93.7766 28.2832C96.2093 28.2832 98.1803 30.3088 98.1803 32.8065C98.1803 32.8258 98.1802 32.8346 98.1801 32.8399C98.1809 32.8519 98.1813 32.8642 98.1813 32.8779C98.1813 33.1688 97.9574 33.4088 97.6734 33.4216C97.6651 33.4219 97.6574 33.4221 97.6496 33.4221ZM73.1694 35.65C74.7646 35.65 76.0577 34.3686 76.0577 32.7879C76.0577 31.2073 74.7646 29.9258 73.1694 29.9258C71.6015 29.9258 70.3209 31.1655 70.282 32.7137V32.8612C70.3213 34.4108 71.6018 35.65 73.1694 35.65ZM73.1703 28.2668C75.691 28.2668 77.7347 30.292 77.7347 32.7901C77.7347 35.2884 75.691 37.3136 73.1703 37.3136C72.1017 37.3136 71.09 36.9482 70.282 36.2928V41.6035C70.282 41.8419 70.2149 41.9247 69.9579 41.9247H68.9299C68.6729 41.9247 68.6058 41.8399 68.6058 41.6035V28.5881C68.6058 28.3383 68.6729 28.2668 68.9299 28.2668H69.9579C70.2149 28.2668 70.282 28.3448 70.282 28.5881V29.2875C71.09 28.6322 72.1017 28.2668 73.1703 28.2668ZM81.0324 31.7635H86.1778C85.8078 30.7202 84.7314 29.9405 83.5822 29.9405C82.3909 29.9405 81.3701 30.6692 81.0324 31.7635ZM87.9847 32.8065C87.9847 32.8258 87.9847 32.8346 87.9845 32.8399C87.9854 32.8519 87.9857 32.8642 87.9857 32.8779C87.9857 33.1688 87.7617 33.4088 87.4779 33.4216C87.4696 33.4219 87.4618 33.4221 87.454 33.4221C87.4463 33.4221 87.4387 33.4219 87.4335 33.4217H80.9266C81.0917 34.2519 81.6657 34.9589 82.4594 35.3545C82.6649 35.4521 82.8889 35.5331 83.1279 35.5969C84.2904 35.8386 85.6247 35.6625 86.6417 34.7649C86.6563 34.749 86.6839 34.7317 86.7137 34.7057C86.8841 34.5563 87.0041 34.5941 87.1377 34.7598C87.1377 34.7598 87.3287 35.0235 87.6698 35.563C87.8167 35.7905 87.8058 35.8998 87.5597 36.152C87.5496 36.1621 87.5303 36.1801 87.5019 36.2049C87.4552 36.2457 87.3993 36.291 87.3343 36.3398C87.1495 36.4783 86.9282 36.6167 86.6703 36.7456C85.7177 37.2224 84.5434 37.4468 83.1478 37.2799C83.1014 37.2729 83.0644 37.2671 83.0287 37.2611V37.2636L82.9492 37.2489C81.9291 37.06 81.0128 36.5549 80.3386 35.8177C80.335 35.8139 80.3348 35.8137 80.3338 35.8125C79.7291 35.1502 79.34 34.3259 79.2183 33.4217H79.2172L79.2101 33.3628C79.1883 33.1787 79.1771 32.9931 79.1771 32.8065C79.1771 30.3089 81.1484 28.2832 83.581 28.2832C86.0137 28.2832 87.9847 30.3088 87.9847 32.8065Z" fill="#8C97AA"/>
</g>
<defs>
<clipPath id="clip0_2264_22763">
<rect width="90.75" height="28.5" fill="white" transform="translate(7.5 13.5)"/>
</clipPath>
</defs>
</svg>
